<svg id="Liste" xmlns="http://www.w3.org/2000/svg" viewBox="0 0 256 256"><path d="M74.89,92.13H49a14,14,0,0,1-14-14V68.65a14,14,0,0,1,14-14H74.89a14,14,0,0,1,14,14v9.48A14,14,0,0,1,74.89,92.13ZM49,64.65a4,4,0,0,0-4,4v9.48a4,4,0,0,0,4,4H74.89a4,4,0,0,0,4-4V68.65a4,4,0,0,0-4-4Z"/><path d="M207,92.13H115a14,14,0,0,1-14-14V68.65a14,14,0,0,1,14-14h92a14,14,0,0,1,14,14v9.48A14,14,0,0,1,207,92.13ZM115,64.65a4,4,0,0,0-4,4v9.48a4,4,0,0,0,4,4h92a4,4,0,0,0,4-4V68.65a4,4,0,0,0-4-4Z"/><path d="M207,146.74H115a14,14,0,0,1-14-14v-9.48a14,14,0,0,1,14-14h92a14,14,0,0,1,14,14v9.48A14,14,0,0,1,207,146.74Zm-92-27.48a4,4,0,0,0-4,4v9.48a4,4,0,0,0,4,4h92a4,4,0,0,0,4-4v-9.48a4,4,0,0,0-4-4Z"/><path d="M207,201.35H115a14,14,0,0,1-14-14v-9.48a14,14,0,0,1,14-14h92a14,14,0,0,1,14,14v9.48A14,14,0,0,1,207,201.35Zm-92-27.48a4,4,0,0,0-4,4v9.48a4,4,0,0,0,4,4h92a4,4,0,0,0,4-4v-9.48a4,4,0,0,0-4-4Z"/><path d="M74.89,201.35H49a14,14,0,0,1-14-14v-9.48a14,14,0,0,1,14-14H74.89a14,14,0,0,1,14,14v9.48A14,14,0,0,1,74.89,201.35ZM49,173.87a4,4,0,0,0-4,4v9.48a4,4,0,0,0,4,4H74.89a4,4,0,0,0,4-4v-9.48a4,4,0,0,0-4-4Z"/><path d="M74.89,146.74H49a14,14,0,0,1-14-14v-9.48a14,14,0,0,1,14-14H74.89a14,14,0,0,1,14,14v9.48A14,14,0,0,1,74.89,146.74ZM49,119.26a4,4,0,0,0-4,4v9.48a4,4,0,0,0,4,4H74.89a4,4,0,0,0,4-4v-9.48a4,4,0,0,0-4-4Z"/></svg>