<svg id="Menu" xmlns="http://www.w3.org/2000/svg" viewBox="0 0 256 256"><path d="M97.16,115.05h-45A17.16,17.16,0,0,1,35,97.91v-45A17.16,17.16,0,0,1,52.12,35.73h45A17.16,17.16,0,0,1,114.3,52.87v45A17.16,17.16,0,0,1,97.16,115.05Zm-45-69.32A7.14,7.14,0,0,0,45,52.87v45a7.15,7.15,0,0,0,7.14,7.14h45a7.15,7.15,0,0,0,7.14-7.14v-45a7.14,7.14,0,0,0-7.14-7.14Z"/><path d="M97.16,220.25h-45A17.16,17.16,0,0,1,35,203.11v-45a17.16,17.16,0,0,1,17.14-17.14h45a17.16,17.16,0,0,1,17.14,17.14v45A17.16,17.16,0,0,1,97.16,220.25Zm-45-69.32A7.14,7.14,0,0,0,45,158.07v45a7.14,7.14,0,0,0,7.14,7.14h45a7.14,7.14,0,0,0,7.14-7.14v-45a7.14,7.14,0,0,0-7.14-7.14Z"/><path d="M203.86,115.05h-45a17.16,17.16,0,0,1-17.14-17.14v-45a17.16,17.16,0,0,1,17.14-17.14h45A17.16,17.16,0,0,1,221,52.87v45A17.16,17.16,0,0,1,203.86,115.05Zm-45-69.32a7.14,7.14,0,0,0-7.14,7.14v45a7.15,7.15,0,0,0,7.14,7.14h45A7.15,7.15,0,0,0,211,97.91v-45a7.14,7.14,0,0,0-7.14-7.14Z"/><path d="M182.55,203.2a5,5,0,0,1-3.53-1.46L143.8,166.52a5,5,0,0,1,7.07-7.07l31.68,31.68,30-30a5,5,0,0,1,7.07,7.07l-33.54,33.55A5,5,0,0,1,182.55,203.2Z"/></svg>