<svg id="Kachel" xmlns="http://www.w3.org/2000/svg" viewBox="0 0 256 256"><path d="M74.89,89.64H49a14,14,0,0,1-14-14V49.73a14,14,0,0,1,14-14H74.89a14,14,0,0,1,14,14V75.64A14,14,0,0,1,74.89,89.64ZM49,45.73a4,4,0,0,0-4,4V75.64a4,4,0,0,0,4,4H74.89a4,4,0,0,0,4-4V49.73a4,4,0,0,0-4-4Z"/><path d="M141,89.64H115a14,14,0,0,1-14-14V49.73a14,14,0,0,1,14-14H141a14,14,0,0,1,14,14V75.64A14,14,0,0,1,141,89.64ZM115,45.73a4,4,0,0,0-4,4V75.64a4,4,0,0,0,4,4H141a4,4,0,0,0,4-4V49.73a4,4,0,0,0-4-4Z"/><path d="M207,89.64H181.09a14,14,0,0,1-14-14V49.73a14,14,0,0,1,14-14H207a14,14,0,0,1,14,14V75.64A14,14,0,0,1,207,89.64ZM181.09,45.73a4,4,0,0,0-4,4V75.64a4,4,0,0,0,4,4H207a4,4,0,0,0,4-4V49.73a4,4,0,0,0-4-4Z"/><path d="M74.89,220.25H49a14,14,0,0,1-14-14V180.34a14,14,0,0,1,14-14H74.89a14,14,0,0,1,14,14v25.91A14,14,0,0,1,74.89,220.25ZM49,176.34a4,4,0,0,0-4,4v25.91a4,4,0,0,0,4,4H74.89a4,4,0,0,0,4-4V180.34a4,4,0,0,0-4-4Z"/><path d="M141,220.25H115a14,14,0,0,1-14-14V180.34a14,14,0,0,1,14-14H141a14,14,0,0,1,14,14v25.91A14,14,0,0,1,141,220.25ZM115,176.34a4,4,0,0,0-4,4v25.91a4,4,0,0,0,4,4H141a4,4,0,0,0,4-4V180.34a4,4,0,0,0-4-4Z"/><path d="M207,220.25H181.09a14,14,0,0,1-14-14V180.34a14,14,0,0,1,14-14H207a14,14,0,0,1,14,14v25.91A14,14,0,0,1,207,220.25Zm-25.91-43.91a4,4,0,0,0-4,4v25.91a4,4,0,0,0,4,4H207a4,4,0,0,0,4-4V180.34a4,4,0,0,0-4-4Z"/><path d="M74.89,155H49a14,14,0,0,1-14-14V115a14,14,0,0,1,14-14H74.89a14,14,0,0,1,14,14V141A14,14,0,0,1,74.89,155ZM49,111a4,4,0,0,0-4,4V141a4,4,0,0,0,4,4H74.89a4,4,0,0,0,4-4V115a4,4,0,0,0-4-4Z"/><path d="M141,155H115a14,14,0,0,1-14-14V115a14,14,0,0,1,14-14H141a14,14,0,0,1,14,14V141A14,14,0,0,1,141,155ZM115,111a4,4,0,0,0-4,4V141a4,4,0,0,0,4,4H141a4,4,0,0,0,4-4V115a4,4,0,0,0-4-4Z"/><path d="M207,155H181.09a14,14,0,0,1-14-14V115a14,14,0,0,1,14-14H207a14,14,0,0,1,14,14V141A14,14,0,0,1,207,155ZM181.09,111a4,4,0,0,0-4,4V141a4,4,0,0,0,4,4H207a4,4,0,0,0,4-4V115a4,4,0,0,0-4-4Z"/></svg>